<svg xmlns="http://www.w3.org/2000/svg" viewBox="0 0 64 64" width="64" height="64">
  <rect width="64" height="64" fill="#1B2035"/>

  <!-- S path scaled to 64x64 (S height ~42px, centered) -->
  <path d="M 26,11 C 34,11 34,32 21,32 C 8,32 8,53 16,53"
    fill="none" stroke="#44C8CE" stroke-width="13" stroke-linecap="round"/>
  <path d="M 26,11 C 34,11 34,32 21,32 C 8,32 8,53 16,53"
    fill="none" stroke="#1B2035" stroke-width="9" stroke-linecap="round"/>
  <path d="M 26,11 C 34,11 34,32 21,32 C 8,32 8,53 16,53"
    fill="none" stroke="#44C8CE" stroke-width="5" stroke-linecap="round"/>
  <path d="M 26,11 C 34,11 34,32 21,32 C 8,32 8,53 16,53"
    fill="none" stroke="#1B2035" stroke-width="2" stroke-linecap="round"/>
</svg>
